HIERARCHY
ROOT Hips
{
 OFFSET 0.000000 0.000000 0.000000
 CHANNELS 6 Xposition Yposition Zposition Yrotation Xrotation Zrotation
 JOINT Chest
 {
  OFFSET 0.000000 9.585900 0.002600
  CHANNELS 3 Yrotation Xrotation Zrotation
  JOINT Chest2
  {
   OFFSET 0.000000 9.601200 -0.005300
   CHANNELS 3 Yrotation Xrotation Zrotation
   JOINT Chest3
   {
    OFFSET 0.000000 9.561800 0.000000
    CHANNELS 3 Yrotation Xrotation Zrotation
    JOINT Chest4
    {
     OFFSET 0.000000 9.552100 0.000000
     CHANNELS 3 Yrotation Xrotation Zrotation
     JOINT Neck
     {
      OFFSET 0.000000 14.453000 0.000000
      CHANNELS 3 Yrotation Xrotation Zrotation
      JOINT Head
      {
       OFFSET 0.000000 8.936500 -0.011300
       CHANNELS 3 Yrotation Xrotation Zrotation
       End Site
       {
        OFFSET 0.000000 17.073600 -0.006000
       }
      }
     }
     JOINT RightCollar
     {
      OFFSET -2.921100 9.558500 0.000000
      CHANNELS 3 Yrotation Xrotation Zrotation
      JOINT RightShoulder
      {
       OFFSET -13.519700 0.000000 0.000000
       CHANNELS 3 Yrotation Xrotation Zrotation
       JOINT RightElbow
       {
        OFFSET 0.000000 -29.696600 0.000000
        CHANNELS 3 Yrotation Xrotation Zrotation
        JOINT RightWrist
        {
         OFFSET 0.000000 -24.004700 0.000000
         CHANNELS 3 Yrotation Xrotation Zrotation
         End Site
         {
          OFFSET 0.000000 -17.728500 0.000000
         }
        }
       }
      }
     }
     JOINT LeftCollar
     {
      OFFSET 2.921100 9.558500 0.000000
      CHANNELS 3 Yrotation Xrotation Zrotation
      JOINT LeftShoulder
      {
       OFFSET 13.519700 0.000000 0.000000
       CHANNELS 3 Yrotation Xrotation Zrotation
       JOINT LeftElbow
       {
        OFFSET 0.000000 -29.696600 0.000000
        CHANNELS 3 Yrotation Xrotation Zrotation
        JOINT LeftWrist
        {
         OFFSET 0.000000 -24.004700 0.000000
         CHANNELS 3 Yrotation Xrotation Zrotation
         End Site
         {
          OFFSET 0.000000 -17.728500 0.000000
         }
        }
       }
      }
     }
    }
   }
  }
 }
 JOINT RightHip
 {
  OFFSET -7.771700 -0.012900 -0.001300
  CHANNELS 3 Yrotation Xrotation Zrotation
  JOINT RightKnee
  {
   OFFSET 0.000000 -40.869800 0.001200
   CHANNELS 3 Yrotation Xrotation Zrotation
   JOINT RightAnkle
   {
    OFFSET 0.000000 -39.717900 0.002100
    CHANNELS 3 Yrotation Xrotation Zrotation
    JOINT RightToe
    {
     OFFSET 0.000000 -4.965400 11.033500
     CHANNELS 3 Yrotation Xrotation Zrotation
     End Site
     {
      OFFSET 0.000000 -1.423100 5.872300
     }
    }
   }
  }
 }
 JOINT LeftHip
 {
  OFFSET 7.771700 -0.012900 -0.001300
  CHANNELS 3 Yrotation Xrotation Zrotation
  JOINT LeftKnee
  {
   OFFSET 0.000000 -40.869800 0.001200
   CHANNELS 3 Yrotation Xrotation Zrotation
   JOINT LeftAnkle
   {
    OFFSET 0.000000 -39.717900 0.002100
    CHANNELS 3 Yrotation Xrotation Zrotation
    JOINT LeftToe
    {
     OFFSET 0.000000 -4.965400 11.033500
     CHANNELS 3 Yrotation Xrotation Zrotation
     End Site
     {
      OFFSET 0.000000 -1.423100 5.872300
     }
    }
   }
  }
 }
}
MOTION
Frames: 11
Frame Time: 0.008333
-10.877220 56.163634 19.387894 -176.275723 -30.617432 -8.364452 -3.714824 13.896508 5.843670 -1.924391 8.137006 2.579726 -2.369564 10.175294 3.174020 -1.918607 8.151705 2.585345 4.687103 19.919771 -3.268769 5.840707 -4.358071 -4.607323 8.002680 -6.276128 -7.057433 11.183223 -30.320201 -2.458143 47.367699 -24.178213 -20.342478 9.178657 1.552972 -24.532020 -10.736466 -4.052174 -4.804666 -10.965332 -24.245632 2.569502 -50.374513 -22.745447 36.878808 1.790312 -2.128656 10.864863 -15.253274 -30.457089 3.983442 66.777878 88.066639 64.161276 0.470913 -24.467272 -0.571500 -0.065076 0.749982 -0.024340 -11.394797 -45.137636 7.747235 174.836031 74.613588 172.623644 -0.512752 -23.593925 0.438001 -0.164543 -1.834430 -0.074552
-10.880608 56.167662 19.387405 -176.284445 -30.595221 -8.360256 -3.719428 13.877670 5.836753 -1.920625 8.131739 2.579283 -2.373651 10.165183 3.167766 -1.918496 8.147680 2.583374 4.684276 19.960301 -3.282267 5.842278 -4.308711 -4.620108 8.007477 -6.332975 -7.084911 11.342037 -30.324305 -2.463420 47.102108 -24.022901 -20.157528 9.209732 1.675640 -24.402290 -10.708924 -4.111091 -4.772622 -11.002517 -24.257679 2.535074 -50.282756 -22.629167 36.720077 1.777842 -2.158474 10.901812 -15.246110 -30.478065 3.998254 66.550655 88.071555 63.919612 0.461946 -24.462020 -0.551101 -0.065278 0.750242 -0.025470 -11.399841 -45.153564 7.763463 174.831419 74.618320 172.608269 -0.516335 -23.586201 0.443384 -0.169316 -1.841412 -0.073140
-10.883619 56.172947 19.386844 -176.288006 -30.583298 -8.365350 -3.721266 13.867123 5.840260 -1.931171 8.123665 2.567449 -2.369565 10.160515 3.167731 -1.916484 8.141268 2.579165 4.680033 20.007217 -3.293087 5.843364 -4.255085 -4.632842 8.015167 -6.387471 -7.109646 11.467930 -30.326847 -2.462077 46.857280 -23.884597 -19.972453 9.252583 1.808400 -24.236983 -10.676718 -4.157076 -4.748868 -11.047924 -24.279402 2.509057 -50.189197 -22.512128 36.561711 1.739475 -2.137694 10.880189 -15.235043 -30.485998 4.008321 66.356983 88.067135 63.724312 0.448531 -24.450999 -0.536950 -0.061799 0.747981 -0.026323 -11.408422 -45.159735 7.781806 174.819151 74.621235 172.589655 -0.517894 -23.572092 0.447868 -0.171882 -1.854768 -0.074143
-10.887845 56.177927 19.388754 -176.318694 -30.568020 -8.353038 -3.701930 13.849711 5.840180 -1.931187 8.120574 2.565579 -2.374229 10.153876 3.163097 -1.919117 8.130698 2.571737 4.675755 20.061163 -3.302424 5.843792 -4.194942 -4.645378 8.027588 -6.438844 -7.132199 11.558948 -30.332035 -2.456351 46.645586 -23.753705 -19.787802 9.293482 1.949648 -24.055617 -10.642834 -4.203450 -4.730327 -11.091519 -24.300361 2.486771 -50.092969 -22.398552 36.403706 1.707743 -2.117775 10.857532 -15.187718 -30.508656 4.010770 66.239413 88.057920 63.615088 0.433588 -24.432195 -0.523476 -0.063100 0.740928 -0.024760 -11.386847 -45.164651 7.797387 174.829014 74.633933 172.591895 -0.526762 -23.577971 0.458118 -0.167121 -1.847241 -0.073498
-10.894331 56.185099 19.388831 -176.333831 -30.573584 -8.340377 -3.714885 13.851877 5.819191 -1.929499 8.113028 2.560367 -2.352997 10.163765 3.171272 -1.932271 8.116344 2.561902 4.684431 20.097589 -3.302191 5.836369 -4.102685 -4.660962 8.042641 -6.488587 -7.154460 11.617250 -30.343366 -2.444070 46.462964 -23.622351 -19.594575 9.331442 2.076894 -23.898410 -10.615248 -4.225392 -4.719347 -11.125379 -24.346914 2.474653 -49.998747 -22.287258 36.245811 1.688317 -2.132948 10.875857 -15.161750 -30.506299 4.000096 66.127107 88.046696 63.494752 0.433243 -24.415643 -0.519341 -0.073503 0.733842 -0.019216 -11.364736 -45.138441 7.800942 174.870214 74.657495 172.617997 -0.543792 -23.603713 0.473479 -0.157451 -1.821148 -0.068565
-10.900543 56.192192 19.391321 -176.340120 -30.569662 -8.337322 -3.716600 13.847247 5.815517 -1.926229 8.112018 2.560957 -2.365207 10.152344 3.161872 -1.933281 8.111821 2.557755 4.678383 20.175109 -3.315078 5.842115 -4.040111 -4.670140 8.055723 -6.518215 -7.167034 11.660423 -30.372332 -2.436570 46.299231 -23.492420 -19.398077 9.356761 2.182639 -23.782605 -10.596140 -4.218226 -4.711980 -11.149992 -24.415790 2.469575 -49.905530 -22.181699 36.089599 1.670117 -2.182619 10.931134 -15.154894 -30.507861 3.997034 65.837255 88.033048 63.198210 0.429204 -24.402655 -0.512504 -0.061847 0.738673 -0.021814 -11.362219 -45.131872 7.806436 174.882114 74.672963 172.620946 -0.547096 -23.599962 0.479888 -0.155876 -1.820058 -0.067495
-10.922923 56.200066 19.390935 -176.377718 -30.595063 -8.225857 -3.710670 13.862259 5.714443 -1.933679 8.108393 2.555961 -2.365751 10.148002 3.159463 -1.945478 8.097133 2.547605 4.684187 20.262782 -3.324883 5.847611 -3.977916 -4.679571 8.075314 -6.557633 -7.184149 11.672660 -30.352775 -2.398685 46.164460 -23.386261 -19.231820 9.357443 2.279627 -23.702521 -10.563589 -4.243379 -4.695796 -11.159862 -24.423626 2.446545 -49.810854 -22.100818 35.949460 1.649426 -2.141685 10.894953 -15.062408 -30.520088 3.878482 66.288079 88.027349 63.625964 0.412091 -24.408340 -0.488447 -0.058240 0.745263 -0.021798 -11.220127 -45.041372 7.662012 174.845330 74.775278 172.571914 -0.607340 -23.759242 0.488162 -0.104785 -1.646010 -0.045303
-10.930590 56.208558 19.394184 -176.396922 -30.597418 -8.213998 -3.706029 13.864344 5.701296 -1.949422 8.099666 2.541653 -2.349649 10.148138 3.166414 -1.934165 8.104194 2.553602 4.666970 20.315069 -3.343453 5.849441 -3.903751 -4.690479 8.072559 -6.634509 -7.224016 11.738379 -30.366629 -2.365922 45.951822 -23.237273 -19.032457 9.335157 2.367595 -23.662977 -10.545493 -4.287062 -4.678801 -11.164679 -24.397459 2.417821 -49.717470 -22.056780 35.833097 1.633340 -2.130096 10.895425 -15.042800 -30.517282 3.874675 65.868914 88.015398 63.193199 0.408609 -24.394684 -0.475510 -0.059339 0.747273 -0.021847 -11.217056 -45.032019 7.680313 174.895422 74.780349 172.595513 -0.624809 -23.792265 0.505662 -0.096128 -1.616475 -0.041850
-10.936586 56.216973 19.398882 -176.409194 -30.590083 -8.217081 -3.708788 13.856723 5.698889 -1.944055 8.098013 2.542307 -2.371638 10.131937 3.148641 -1.920775 8.110454 2.558461 4.668869 20.377425 -3.352445 5.849373 -3.832643 -4.702750 8.085974 -6.683686 -7.249576 11.812326 -30.390391 -2.339476 45.736537 -23.087262 -18.850440 9.296388 2.437067 -23.669990 -10.507100 -4.315397 -4.655142 -11.192833 -24.422354 2.388650 -49.585971 -21.976024 35.675937 1.596045 -2.170615 10.937996 -15.042915 -30.517904 3.889627 65.322360 88.005950 62.629485 0.407356 -24.380204 -0.462573 -0.064110 0.749777 -0.021954 -11.219339 -45.029110 7.697813 174.896161 74.795712 172.590612 -0.629264 -23.784279 0.510491 -0.096137 -1.618641 -0.041471
-10.942529 56.225965 19.403026 -176.421020 -30.585671 -8.221428 -3.707650 13.854469 5.697967 -1.934843 8.095729 2.549091 -2.383991 10.125474 3.141529 -1.918070 8.103632 2.555424 4.661198 20.437359 -3.365274 5.848207 -3.764462 -4.718080 8.091156 -6.732083 -7.282712 11.830111 -30.367984 -2.286757 45.614347 -22.974514 -18.729154 9.247451 2.489215 -23.711536 -10.478203 -4.339135 -4.631600 -11.220045 -24.501865 2.334162 -49.449000 -21.841015 35.498122 1.565242 -2.213751 10.980305 -15.071851 -30.510951 3.914585 64.640818 87.998076 61.911418 0.417347 -24.371374 -0.459108 -0.066697 0.759381 -0.019312 -11.223826 -45.019136 7.721306 174.905468 74.813872 172.590059 -0.639539 -23.785506 0.519343 -0.092071 -1.612910 -0.040705
-10.949443 56.234603 19.407486 -176.437192 -30.576972 -8.216538 -3.719139 13.860360 5.685741 -1.922223 8.083123 2.550334 -2.383572 10.120029 3.143506 -1.936111 8.085004 2.545460 4.684936 20.485181 -3.365547 5.839952 -3.675391 -4.743579 8.116574 -6.768854 -7.317634 11.890349 -30.377070 -2.236512 45.495868 -22.820324 -18.624178 9.196240 2.545922 -23.764699 -10.435571 -4.354164 -4.604869 -11.219740 -24.490714 2.290182 -49.357102 -21.776481 35.383306 1.568617 -2.165996 10.959321 -15.074065 -30.515401 3.915131 64.244123 87.980311 61.503982 0.416846 -24.358251 -0.458813 -0.068934 0.763310 -0.021876 -11.210326 -45.016358 7.726782 174.889850 74.831903 172.571011 -0.644524 -23.783779 0.527050 -0.091414 -1.608856 -0.041458
